<svg xmlns="http://www.w3.org/2000/svg" version="1.1" xmlns:xlink="http://www.w3.org/1999/xlink" xmlns:svgjs="http://svgjs.com/svgjs" width="512" height="512" x="0" y="0" viewBox="0 0 25 25" style="enable-background:new 0 0 512 512" xml:space="preserve" class=""><g><path d="M23.077 21.154C23.077 23.796 17.594 25 12.5 25S1.923 23.796 1.923 21.154c0-2.033 3.025-2.992 5.562-3.439a.962.962 0 0 1 .334 1.895c-3.06.537-3.924 1.379-3.974 1.559.147.504 3.032 1.908 8.655 1.908s8.508-1.404 8.656-1.938c-.051-.15-.92-.997-4.002-1.533a.962.962 0 0 1 .331-1.895c2.551.445 5.592 1.402 5.592 3.443zM8.654 15.385h.961v5.769c0 .53.432.961.962.961h3.846c.53 0 .962-.432.962-.961v-5.769h.961c.53 0 .962-.432.962-.962V8.654c0-.492-.772-1.572-2.112-1.728-.55-.105-1.611-.18-2.681-.18-1.08-.001-2.156.075-2.712.18-1.339.157-2.111 1.237-2.111 1.728v5.769c0 .53.432.962.962.962zM12.5 5.769a2.885 2.885 0 1 0 0-5.77 2.885 2.885 0 0 0 0 5.77z" style="" fill="#30814f" data-original="#030104" class=""></path></g></svg>